<?xml version="1.0" encoding="UTF-8" standalone="no"?>
<!-- Created with Inkscape (http://www.inkscape.org/) -->

<svg
   xmlns:dc="http://purl.org/dc/elements/1.1/"
   xmlns:cc="http://creativecommons.org/ns#"
   xmlns:rdf="http://www.w3.org/1999/02/22-rdf-syntax-ns#"
   xmlns:svg="http://www.w3.org/2000/svg"
   xmlns="http://www.w3.org/2000/svg"
   xmlns:sodipodi="http://sodipodi.sourceforge.net/DTD/sodipodi-0.dtd"
   xmlns:inkscape="http://www.inkscape.org/namespaces/inkscape"
   version="1.1"
   id="svg2"
   xml:space="preserve"
   width="222.99213"
   height="336.37796"
   viewBox="0 0 222.99213 336.37796"
   sodipodi:docname="sticker Logo MHK humanlabV3.svg"
   inkscape:export-filename="/home/pauline/Téléchargements/Réseau des humanlabs.png"
   inkscape:export-xdpi="300"
   inkscape:export-ydpi="300"
   inkscape:version="0.92.5 (2060ec1f9f, 2020-04-08)"><metadata
     id="metadata8"><rdf:RDF><cc:Work
         rdf:about=""><dc:format>image/svg+xml</dc:format><dc:type
           rdf:resource="http://purl.org/dc/dcmitype/StillImage" /><dc:title /></cc:Work></rdf:RDF></metadata><defs
     id="defs6"><clipPath
       clipPathUnits="userSpaceOnUse"
       id="clipPath22"><path
         d="M 0,0 H 168 V 253 H 0 Z"
         id="path20"
         inkscape:connector-curvature="0" /></clipPath><clipPath
       clipPathUnits="userSpaceOnUse"
       id="clipPath32"><path
         d="m 13.941,280.262 55.309,-99.164 -82.594,96.906 78,-96.742 -85.074,66.566 v -1.668 l 65.648,-62.594 -65.648,24.922 v -10.949 l 55.856,-25.879 -55.856,12.641 v -1.742 l 78.066,-22.375 -78.066,0.211 v -1.54 L 50.246,155.551 27.379,145.16 -20.418,128.746 v -2.535 l 13.984,3.582 -13.984,-6.355 V 112.516 L 29.574,131.145 -20.418,99.563 V 97.531 L 55.215,136.93 -20.418,59.902 V 58.598 L 64.438,129.668 -13.094,37.887 69.129,127.508 12.305,13.141 71.086,117.207 42.809,0.074 l 30.593,93.949 2.129,-46.179 -5.98,-62.926 6.824,44.703 2.59,-56.168 h 1.047 L 89.859,108.273 98.98,-3.289 92.199,118.871 122.063,-7.789 94.91,120.625 157.688,10.863 97.992,127.449 176.344,33.164 107.902,128.195 187.66,65.367 v 0.567 l -77.535,65.039 77.535,-37.485 v 2.903 l -64.687,38.636 64.687,-24.558 v 10.679 l -12.992,6.024 12.992,-3.043 v 1.027 l -20.152,5.332 -29.496,13.664 49.648,2.297 v 4.805 l -70.785,6.5 70.785,22.637 v 2.336 l -72.308,-17.36 72.308,32.86 v 10.656 l -57.461,-21.41 57.461,50.683 v 0.602 l -73.64,-57.317 -2.891,-1.074 66.629,85.762 -75.61,-84.219 45.454,98.352 h -0.739 L 95.641,179.156 117.18,280.262 h -2.203 l -23.161,-80.567 -0.66,14.313 7.516,66.254 H 97.77 l -7.305,-51.192 -2.363,51.192 h -8.969 l -2.82,-38.586 -4.668,38.586 h -2.227 l 4.066,-77.297 -0.117,-1.602 -25.344,78.899 H 47.5 l 25.031,-83.86 0.43,-0.625 -0.047,-0.656 -0.383,1.281 -57.703,83.86 z"
         id="path30"
         inkscape:connector-curvature="0" /></clipPath><clipPath
       clipPathUnits="userSpaceOnUse"
       id="clipPath40"><path
         d="m 6943.5096,-1880.8867 h 842.8006 v 1596.11139 h -842.8006 z"
         id="path38"
         inkscape:connector-curvature="0" /></clipPath><radialGradient
       fx="7363.0259"
       fy="-1085.0505"
       cx="7363.0259"
       cy="-1085.0505"
       r="1328.1152"
       gradientUnits="userSpaceOnUse"
       spreadMethod="pad"
       id="radialGradient46"><stop
         style="stop-opacity:1;stop-color:#ffffff"
         offset="0"
         id="stop42" /><stop
         style="stop-opacity:0;stop-color:#ffffff"
         offset="1"
         id="stop44" /></radialGradient><mask
       maskUnits="userSpaceOnUse"
       x="0"
       y="0"
       width="1"
       height="1"
       id="mask48"><g
         id="g54"><g
           clip-path="url(#clipPath40)"
           id="g52"><path
             d="m 6943.5096,-1880.8867 h 842.8006 v 1596.11139 h -842.8006 z"
             style="fill:url(#radialGradient46);stroke:none"
             id="path50"
             inkscape:connector-curvature="0" /></g></g></mask><radialGradient
       fx="7363.0259"
       fy="-1085.0505"
       cx="7363.0259"
       cy="-1085.0505"
       r="1328.1152"
       gradientUnits="userSpaceOnUse"
       spreadMethod="pad"
       id="radialGradient62"><stop
         style="stop-opacity:1;stop-color:#cccccc"
         offset="0"
         id="stop58" /><stop
         style="stop-opacity:1;stop-color:#f2f2f2"
         offset="1"
         id="stop60" /></radialGradient><clipPath
       clipPathUnits="userSpaceOnUse"
       id="clipPath90"><path
         d="m 23,159.28346 h 3 v 3 h -3 z"
         id="path88"
         inkscape:connector-curvature="0" /></clipPath><mask
       maskUnits="userSpaceOnUse"
       x="0"
       y="0"
       width="1"
       height="1"
       id="mask92"><g
         id="g98"><g
           clip-path="url(#clipPath90)"
           id="g96"><path
             d="m 23,159.28346 h 3 v 3 h -3 z"
             style="fill:#000000;fill-opacity:0.98999999;fill-rule:nonzero;stroke:none"
             id="path94"
             inkscape:connector-curvature="0" /></g></g></mask><clipPath
       clipPathUnits="userSpaceOnUse"
       id="clipPath106"><path
         d="m 23,159.28346 h 3 v 3 h -3 z"
         id="path104"
         inkscape:connector-curvature="0" /></clipPath><clipPath
       clipPathUnits="userSpaceOnUse"
       id="clipPath110"><path
         d="m 23,160 h 3 v 3 h -3 z"
         id="path108"
         inkscape:connector-curvature="0" /></clipPath><clipPath
       clipPathUnits="userSpaceOnUse"
       id="clipPath132"><path
         d="m 26,155.28346 h 4 v 3 h -4 z"
         id="path130"
         inkscape:connector-curvature="0" /></clipPath><mask
       maskUnits="userSpaceOnUse"
       x="0"
       y="0"
       width="1"
       height="1"
       id="mask134"><g
         id="g140"><g
           clip-path="url(#clipPath132)"
           id="g138"><path
             d="m 26,155.28346 h 4 v 3 h -4 z"
             style="fill:#000000;fill-opacity:0.98999999;fill-rule:nonzero;stroke:none"
             id="path136"
             inkscape:connector-curvature="0" /></g></g></mask><clipPath
       clipPathUnits="userSpaceOnUse"
       id="clipPath148"><path
         d="m 26,155.28346 h 4 v 3 h -4 z"
         id="path146"
         inkscape:connector-curvature="0" /></clipPath><clipPath
       clipPathUnits="userSpaceOnUse"
       id="clipPath152"><path
         d="m 26,156 h 4 v 3 h -4 z"
         id="path150"
         inkscape:connector-curvature="0" /></clipPath><clipPath
       clipPathUnits="userSpaceOnUse"
       id="clipPath176"><path
         d="m 89.094,163.865 -2.422,0.04 -3.984,1.699 6.089,-4.43 z"
         id="path174"
         inkscape:connector-curvature="0"
         style="clip-rule:evenodd" /></clipPath><linearGradient
       x1="362.89731"
       y1="163.68054"
       x2="377.29196"
       y2="206.29636"
       gradientUnits="userSpaceOnUse"
       gradientTransform="matrix(0.208767,0,0,-0.208878,10.190495,205.96621)"
       spreadMethod="pad"
       id="linearGradient184"><stop
         style="stop-opacity:1;stop-color:#000000"
         offset="0"
         id="stop180" /><stop
         style="stop-opacity:1;stop-color:#3d6999"
         offset="1"
         id="stop182" /></linearGradient><clipPath
       clipPathUnits="userSpaceOnUse"
       id="clipPath194"><path
         d="m 83.984,107.264 -2.129,-8.5 -4.3,-10.594 -1.524,-8.027 -0.433,-7.098 -2.977,-7.336 0.457,4.949 1.899,9.657 0.238,3.636 3.129,14.43 4.98,8.953 z"
         id="path192"
         inkscape:connector-curvature="0"
         style="clip-rule:evenodd" /></clipPath><linearGradient
       x1="659.91302"
       y1="314.47571"
       x2="247.07277"
       y2="544.32501"
       gradientUnits="userSpaceOnUse"
       gradientTransform="matrix(0.208767,0,0,-0.208878,10.342557,203.98944)"
       spreadMethod="pad"
       id="linearGradient202"><stop
         style="stop-opacity:1;stop-color:#000000"
         offset="0"
         id="stop198" /><stop
         style="stop-opacity:1;stop-color:#3d6999"
         offset="1"
         id="stop200" /></linearGradient><clipPath
       clipPathUnits="userSpaceOnUse"
       id="clipPath216"><path
         d="m 110.047,151.783 -5.512,-0.671 -4.383,0.113 -0.097,-0.703 -1.801,-7.399 -1.293,-3.785 -0.008,3.113 0.723,1.813 1.762,7.57 1.14,0.809 z"
         id="path214"
         inkscape:connector-curvature="0"
         style="clip-rule:evenodd" /></clipPath><linearGradient
       x1="404.3681"
       y1="202.64728"
       x2="446.94974"
       y2="287.13519"
       gradientUnits="userSpaceOnUse"
       gradientTransform="matrix(0.208767,0,0,-0.208878,10.190495,205.9662)"
       spreadMethod="pad"
       id="linearGradient224"><stop
         style="stop-opacity:1;stop-color:#000000"
         offset="0"
         id="stop220" /><stop
         style="stop-opacity:1;stop-color:#3d6999"
         offset="1"
         id="stop222" /></linearGradient></defs><sodipodi:namedview
     pagecolor="#ffffff"
     bordercolor="#666666"
     borderopacity="1"
     objecttolerance="10"
     gridtolerance="10"
     guidetolerance="10"
     inkscape:pageopacity="0"
     inkscape:pageshadow="2"
     inkscape:window-width="1366"
     inkscape:window-height="692"
     id="namedview4"
     showgrid="false"
     showguides="true"
     inkscape:guide-bbox="true"
     inkscape:lockguides="true"
     inkscape:zoom="1.7585264"
     inkscape:cx="163.0867"
     inkscape:cy="137.24377"
     inkscape:window-x="0"
     inkscape:window-y="0"
     inkscape:window-maximized="1"
     inkscape:current-layer="g12"><sodipodi:guide
       position="17.664093,200.7722"
       orientation="1,0"
       id="guide1075"
       inkscape:locked="true" /><sodipodi:guide
       position="205.21236,216.50579"
       orientation="1,0"
       id="guide1077"
       inkscape:locked="true" /><sodipodi:guide
       position="24.703088,269.47743"
       orientation="1,0"
       id="guide1079"
       inkscape:locked="true" /><sodipodi:guide
       position="197.981,272.56532"
       orientation="1,0"
       id="guide1081"
       inkscape:locked="true" /><sodipodi:guide
       position="148.70267,290.716"
       orientation="0,1"
       id="guide1083"
       inkscape:locked="true" /><sodipodi:guide
       position="114.47333,40.149343"
       orientation="0,1"
       id="guide1085"
       inkscape:locked="true" /><sodipodi:guide
       position="123.68421,58.187134"
       orientation="0,1"
       id="guide1087"
       inkscape:locked="true" /><sodipodi:guide
       position="170.98933,256.044"
       orientation="0,1"
       id="guide1089"
       inkscape:locked="true" /><sodipodi:guide
       position="112.5731,263.45029"
       orientation="1,0"
       id="guide1091"
       inkscape:locked="true" /></sodipodi:namedview><g
     id="g10"
     inkscape:groupmode="layer"
     inkscape:label="sticker Logo MHK humanlab(1)"
     transform="matrix(1.3333333,0,0,-1.3333333,0,336.37795)"><g
       id="g12"><g
   id="g14"
   transform="translate(0,-0.716537)"><g
     id="g16"><g
       id="g18"
       clip-path="url(#clipPath22)"><g
         id="g24"><g
           id="g26"><g
             id="g28"
             clip-path="url(#clipPath32)"><g
               id="g34"
               transform="matrix(0.203042,-0.00214458,-0.00198498,-0.159601,-1413.5372,-30.526305)"><g
                 id="g36" /><g
                 id="g56"
                 mask="url(#mask48)"><path
                   d="m 13.941,280.262 55.309,-99.164 -82.594,96.906 78,-96.742 -85.074,66.566 v -1.668 l 65.648,-62.594 -65.648,24.922 v -10.949 l 55.856,-25.879 -55.856,12.641 v -1.742 l 78.066,-22.375 -78.066,0.211 v -1.54 L 50.246,155.551 27.379,145.16 -20.418,128.746 v -2.535 l 13.984,3.582 -13.984,-6.355 V 112.516 L 29.574,131.145 -20.418,99.563 V 97.531 L 55.215,136.93 -20.418,59.902 V 58.598 L 64.438,129.668 -13.094,37.887 69.129,127.508 12.305,13.141 71.086,117.207 42.809,0.074 l 30.593,93.949 2.129,-46.179 -5.98,-62.926 6.824,44.703 2.59,-56.168 h 1.047 L 89.859,108.273 98.98,-3.289 92.199,118.871 122.063,-7.789 94.91,120.625 157.688,10.863 97.992,127.449 176.344,33.164 107.902,128.195 187.66,65.367 v 0.567 l -77.535,65.039 77.535,-37.485 v 2.903 l -64.687,38.636 64.687,-24.558 v 10.679 l -12.992,6.024 12.992,-3.043 v 1.027 l -20.152,5.332 -29.496,13.664 49.648,2.297 v 4.805 l -70.785,6.5 70.785,22.637 v 2.336 l -72.308,-17.36 72.308,32.86 v 10.656 l -57.461,-21.41 57.461,50.683 v 0.602 l -73.64,-57.317 -2.891,-1.074 66.629,85.762 -75.61,-84.219 45.454,98.352 h -0.739 L 95.641,179.156 117.18,280.262 h -2.203 l -23.161,-80.567 -0.66,14.313 7.516,66.254 H 97.77 l -7.305,-51.192 -2.363,51.192 h -8.969 l -2.82,-38.586 -4.668,38.586 h -2.227 l 4.066,-77.297 -0.117,-1.602 -25.344,78.899 H 47.5 l 25.031,-83.86 0.43,-0.625 -0.047,-0.656 -0.383,1.281 -57.703,83.86 z"
                   style="fill:url(#radialGradient62);stroke:none"
                   id="path64"
                   inkscape:connector-curvature="0" /></g></g></g></g></g></g></g></g><path
   d="m 95.094,120.58 8.203,-11.914 6.215,-12.422 0.086,-0.875 2.32,-3.593 c 0.492,-0.762 0.805,-1.774 1.184,-2.973 l 5.355,-8.219 4.227,-9.113 c 1.484,-3.207 1.074,-2.848 2.671,-5.902 l 4.508,0.207 2.414,0.605 1.192,0.406 1.246,-0.019 0.824,-0.465 -2.418,-1.723 -3.113,-2.136 -3.203,-1.879 -0.86,-0.789 -2.015,-1.227 -1.016,0.867 -0.531,1.278 -0.723,2.761 -3.758,4.946 -2.726,3.867 c -0.387,0.258 -1.258,0.883 -1.547,1.195 l -4.09,4.457 -2.578,6.695 -9.098,8.391 -5.957,5.422 -5.867,6.215 -0.059,-0.086 z"
   style="fill:#ff6b40;fill-opacity:1;fill-rule:evenodd;stroke:none"
   id="path66"
   inkscape:connector-curvature="0" /><path
   d="m 56.02,164.471 -5.817,2.633 -5.758,3.308 -7.011,6.551 -2.618,1.688 c -0.746,-0.258 -1.656,-0.512 -3.015,-0.75 l -3.395,1.828 -1.304,1.98 0.675,1.356 -3.683,2.074 -1.395,1.101 0.352,0.711 3.199,-0.984 3.809,-1.262 c 3.078,-1.457 4.281,-1.972 5.961,-2.734 l 2.425,-0.863 c 0.399,-0.184 2.528,-1.227 2.918,-1.395 l 7.992,-3.644 6.813,-4.297 3.715,-2.317 2.801,-1.078 3.308,-1.867 3.496,-0.82 4.129,-2.422 3.098,-2.395 -9.735,-6.519 -6.839,5.601 z"
   style="fill:#ff6b40;fill-opacity:1;fill-rule:evenodd;stroke:none"
   id="path68"
   inkscape:connector-curvature="0" /><path
   d="m 79.68,104.834 -0.102,-0.023 -6.047,-6.035 -7.949,-6.395 -8.211,-8.535 -6.016,4.367 c 0.489,1.402 0.915,2.516 1.5,3.352 l 2.196,3.109 0.113,0.871 6.598,12.266 9.605,11.605 z"
   style="fill:#ff6b40;fill-opacity:1;fill-rule:evenodd;stroke:none"
   id="path70"
   inkscape:connector-curvature="0" /><path
   d="m 50.813,87.178 -4.782,-7.066 -3.57,-8.09 C 41.063,68.85 41.238,69.311 39.785,66.42 l 0.012,0.008 0.832,-0.758 c 0.191,0.059 0.394,0.078 0.59,0.067 l 5.812,8.562 0.688,0.563 1.898,6.019 2.832,5.172 z m 2.019,-1.387 -2.793,-5.09 -1.672,-5.304 2,1.636 3.801,5.676 0.734,1.656 z m 3.453,-2.375 -0.668,-1.504 -4.015,-5.996 -3.34,-2.738 -5.68,-8.367 c 0.066,-0.133 0.117,-0.278 0.145,-0.43 l 0.98,-0.195 c 2.043,2.832 4.18,5.844 6.25,8.746 0.383,0.262 1.25,0.894 1.527,1.219 l 4.243,4.941 1.07,3.973 z m -25.242,-15.547 -1.059,-0.125 -0.836,-0.613 2.34,-2.058 1.418,-1.032 0.434,-0.289 5.371,-1.043 0.727,0.508 c -0.153,0.406 -0.153,0.863 -0.004,1.285 0.062,0.172 0.148,0.336 0.257,0.485 l -2.035,-1.004 -4.488,1.472 -2.754,1.789 0.25,0.383 2.707,-1.758 4.25,-1.39 1.832,0.902 -0.363,0.613 -1.852,0.395 -2.015,0.215 -1.969,0.41 z M 42.754,63.791 C 42.738,63.643 42.707,63.498 42.656,63.358 42.52,62.975 42.266,62.643 41.938,62.42 l -0.004,-2.055 -3.465,-0.031 2.695,-1.797 0.981,0.7 0.535,1.336 0.832,3.113 z m -8.422,-0.699 3.457,-2.305 3.688,0.032 v 1.379 c -0.344,-0.11 -0.707,-0.106 -1.039,0.011 -0.317,0.114 -0.586,0.321 -0.786,0.598 l -0.836,-0.586 z"
   style="fill:#ff6b40;fill-opacity:1;fill-rule:evenodd;stroke:none"
   id="path72"
   inkscape:connector-curvature="0" /><path
   d="m 90.488,161.268 2.758,1.699 2.727,1.34 5.718,0.855 2.879,1.473 3.387,1.129 3.836,2.105 4.281,2.582 4.821,2.207 5.152,2.313 2.824,-5.703 -1.769,-1.289 -5.997,-3.457 -3.617,-1.645 -4.449,-2.66 -8.476,-5.816 -5.778,-2.934 c -2.422,-1.234 -1.84,9.117 -8.297,7.801 z"
   style="fill:#ff6b40;fill-opacity:1;fill-rule:evenodd;stroke:none"
   id="path74"
   inkscape:connector-curvature="0" /><path
   d="m 87.848,186.162 c -6.551,-1.382 -9.907,-4.972 -7.828,-12.312 -0.247,-2.09 -0.172,-2.91 -0.657,-5.512 l -0.351,-1.719 c -0.078,-0.355 -0.317,-1.425 -0.41,-1.836 l -5.606,-2.3 -4.344,-0.883 -2.547,-0.426 -4.343,-1.582 -4.602,-0.129 -6.195,-1.027 -3.754,0.594 -5.52,0.218 -3.203,0.051 -3.074,0.02 -0.008,-4.969 3.242,-0.918 4.668,-0.762 4.997,-0.828 4.66,-0.445 8.84,-0.414 5.371,0.375 c 0.539,0.066 1.832,0.484 2.351,0.593 l 0.742,-5.687 0.61,-2.586 1.097,-6.168 0.379,-4.785 0.063,-6.992 -0.848,-3.981 -0.937,-4.859 -2.602,-12.492 0.086,-14.243 0.445,-1.187 -0.203,-3.731 c -0.051,-0.91 0.387,-2.046 0.449,-3.304 L 66.652,72.365 65.855,62.354 C 65.578,58.826 65.617,59.451 65.184,56.03 l -4.289,-4.762 -2.649,-1.336 -1.308,-0.813 -0.817,-1.648 2.649,-1.031 1.828,-0.09 9.507,3.793 0.278,1.578 -0.785,3.469 3.019,10.519 c 0.274,0.375 0.875,1.266 1.035,1.66 l 1.946,5.676 0.433,7.098 1.524,8.027 4.3,10.594 2.129,8.5 0.086,-0.059 3.043,-11.3 1.094,-12.059 1.652,-5.246 7.067,0.297 c 0.07,1.484 0.804,3.336 0.98,4.34 l -0.051,3.109 0.45,1 0.8,11.887 -0.687,15.734 -0.75,4.266 -1.207,4.574 c 0.086,0.598 -0.254,7.551 -0.301,8.461 -0.094,1.75 0.727,5.91 0.801,7.07 l 1.293,3.785 0.996,3.903 0.805,3.5 0.097,0.699 4.383,-0.113 5.512,0.671 6.41,1.457 5.75,-0.097 5.023,0.058 9.317,2.274 3.109,0.191 c 0.524,-0.593 1.192,-1.261 2.262,-2.133 l 3.852,-0.074 2.109,1.086 0.078,1.516 h 4.223 l 1.758,0.281 0.039,0.789 -3.27,0.715 -3.937,0.766 c -3.395,0.238 -4.7,0.375 -6.536,0.539 l -2.539,0.433 c -0.433,0.035 -2.8,0.168 -3.226,0.219 l -8.75,0.738 -6.426,-0.406 -4.367,-0.195 -3.125,0.05 -4.078,0.051 -4.157,0.18 c -1.664,0.715 -5.406,1.113 -8.878,1.629 h -2.184 l -3.426,2.043 c 0.098,0.25 1.11,0.832 1.692,1.558 0.191,0.243 0.441,0.059 0.558,0.336 0.086,0.215 0.262,0.047 0.383,0.582 l 0.477,2.063 1.949,0.441 0.187,3.442 c 0.074,1.386 1.18,2.5 1.746,3.886 0.332,7.649 -4.199,8.993 -8.222,9.961 z m -4.442,-9.437 c 0.508,0 0.91,-0.434 0.91,-0.942 0,-0.503 -0.402,-0.937 -0.91,-0.937 -0.508,0 -0.91,0.434 -0.91,0.937 0,0.508 0.402,0.942 0.91,0.942 z"
   style="fill:#3d6999;fill-opacity:1;fill-rule:evenodd;stroke:none"
   id="path76"
   inkscape:connector-curvature="0" /><path
   d="m 82.25,177.432 -0.113,-4.141 0.578,-1.468 1.461,0.492 -0.168,1.508 1.035,2.882 z m 1.156,-0.707 c 0.508,0 0.91,-0.434 0.91,-0.942 0,-0.503 -0.402,-0.937 -0.91,-0.937 -0.508,0 -0.91,0.434 -0.91,0.937 0,0.508 0.402,0.942 0.91,0.942 z"
   style="fill:#ff6b40;fill-opacity:1;fill-rule:evenodd;stroke:none"
   id="path78"
   inkscape:connector-curvature="0" /><path
   d="m 95.906,179.084 4.473,2.403 -2.816,0.304 1.777,0.981 -2.61,0.5 0.551,0.394 0.176,1.41 -1.723,0.118 0.391,1.105 -1.598,-0.348 0.106,1.239 -1.469,-0.293 -0.289,1.191 -1.398,-0.699 -0.969,1.121 -0.469,-0.793 -1.41,1.117 -0.535,-0.894 -0.598,0.883 -1.289,-0.809 -0.492,0.906 -0.867,-0.984 -1.258,0.679 0.18,-1.007 -1.059,0.277 -0.27,-0.707 -1.125,0.402 0.278,-1.484 -1.492,0.496 0.714,-1.016 -1.418,0.028 0.387,-0.754 -1.25,-0.367 0.195,-1.176 -1.121,-0.094 0.364,-1.055 -0.774,-0.425 0.571,-0.942 -1.004,-1.215 1.015,-0.824 1.629,-0.734 1.766,2.668 2.488,2.012 3.32,0.707 2.477,-0.844 5.047,-3.453 z"
   style="fill:#ff6b40;fill-opacity:1;fill-rule:evenodd;stroke:none"
   id="path80"
   inkscape:connector-curvature="0" /><path
   d="m 22.566,167.24 -0.746,-0.82 -0.113,-0.808 1.043,-2.086 -0.145,-1.989 -1.89,-0.214 -5.805,2.417 -0.453,-0.593 1.789,-1.192 2.922,-1.91 -0.082,-0.273 -5.547,0.574 -0.312,-1.242 5.875,-0.875 0.011,-0.414 -5.437,-1.285 0.121,-1.168 5.734,0.742 0.039,-0.352 -3.621,-2.637 0.797,-0.824 4.266,2.407 1.695,0.179 2.375,0.02 2.148,0.613 2.129,-0.262 5.418,-0.715 v 1.739 l -5.324,0.535 c -0.183,-0.457 -0.625,-0.809 -1.156,-0.899 -0.309,-0.05 -0.613,-0.003 -0.879,0.114 l -1.875,-0.496 -4.691,-0.293 -4.145,-2.625 -0.254,0.402 4.246,2.691 4.77,0.301 1.453,0.383 c -0.063,0.07 -0.113,0.145 -0.156,0.227 l -1.7,-0.141 -5.847,0.176 -5.254,-0.938 -0.082,0.469 5.301,0.949 5.871,-0.179 1.566,0.128 c -0.004,0.024 -0.008,0.047 -0.008,0.067 l -4.98,0.605 -2.176,0.907 -5.84,0.804 0.063,0.473 5.906,-0.813 2.172,-0.906 4.922,-0.598 c 0.011,0.043 0.027,0.083 0.043,0.122 l -2.727,0.843 -3.82,1.575 -4.942,2.734 0.231,0.418 4.918,-2.723 3.777,-1.554 2.848,-0.883 c 0.097,0.097 0.207,0.183 0.328,0.254 l -2.152,1.293 0.004,0.007 c -0.075,-0.023 -0.149,-0.046 -0.231,-0.058 -0.629,-0.106 -1.266,0.277 -1.371,0.902 -0.07,0.43 0.137,0.824 0.477,1.067 l -0.883,2.652 -1.114,1.863 0.414,0.246 1.137,-1.91 0.879,-2.644 c 0.035,0.007 0.067,0.015 0.102,0.023 0.632,0.102 1.269,-0.277 1.371,-0.906 0.047,-0.278 -0.024,-0.543 -0.168,-0.762 l 2.687,-1.617 c 0.508,-0.125 0.926,-0.5 1.032,-1.024 l 5.257,-0.527 v 2.336 l -6.593,0.215 -1.508,0.848 -1.336,2.054 -2.035,3.211 z"
   style="fill:#ff6b40;fill-opacity:1;fill-rule:evenodd;stroke:none"
   id="path82"
   inkscape:connector-curvature="0" /><g
   id="g84"><g
     id="g86" /><g
     id="g100"
     mask="url(#mask92)"><g
       id="g102" /><g
       id="g124"><g
         clip-path="url(#clipPath106)"
         id="g122"><g
           transform="translate(0,-0.716537)"
           id="g120"><g
             id="g118"><g
               clip-path="url(#clipPath110)"
               id="g116"><g
                 id="g114"><path
                   d="m 24.879,160.664 c -0.457,-0.082 -0.883,0.203 -0.949,0.637 -0.071,0.429 0.25,0.844 0.707,0.922 0.461,0.082 0.886,-0.203 0.953,-0.633 0.066,-0.434 -0.25,-0.848 -0.711,-0.926 z"
                   style="fill:#3d6999;fill-opacity:1;fill-rule:evenodd;stroke:none"
                   id="path112"
                   inkscape:connector-curvature="0" /></g></g></g></g></g></g></g></g><g
   id="g126"><g
     id="g128" /><g
     id="g142"
     mask="url(#mask134)"><g
       id="g144" /><g
       id="g166"><g
         clip-path="url(#clipPath148)"
         id="g164"><g
           transform="translate(0,-0.716537)"
           id="g162"><g
             id="g160"><g
               clip-path="url(#clipPath152)"
               id="g158"><g
                 id="g156"><path
                   d="m 28.25,156.961 c -0.605,-0.106 -1.164,0.262 -1.254,0.816 -0.086,0.559 0.328,1.09 0.93,1.192 0.605,0.101 1.164,-0.266 1.254,-0.821 0.086,-0.554 -0.328,-1.085 -0.93,-1.187 z"
                   style="fill:#3d6999;fill-opacity:1;fill-rule:evenodd;stroke:none"
                   id="path154"
                   inkscape:connector-curvature="0" /></g></g></g></g></g></g></g></g><path
   d="m 97.004,77.834 -0.688,-0.043 -0.3,-6.199 -1.223,-6.187 0.336,-0.836 0.555,-9.231 0.871,0.219 -0.075,0.308 0.059,5.661 1.027,8.672 z m -1.149,-0.07 -2.804,-0.164 -0.149,-2.203 0.61,-6.813 0.968,-2.398 1.079,5.461 z m -4.46,-0.262 -1.426,-0.086 -0.356,-2.5 -0.062,-4.172 c 0,0 1.519,-6.23 1.73,-6.644 l 1.035,-6.649 -0.046,-1.691 -0.321,-0.988 0.332,-1.227 -0.101,-3.019 1.019,-1.418 -0.203,-1.895 0.852,-0.875 2.64,-0.172 2.282,0.633 0.707,0.652 0.332,1 -2.352,2.864 -0.801,1.761 0.157,1.434 -0.063,0.254 -0.641,-0.399 0.793,-2.824 1.727,-2.691 0.434,-1.75 -0.446,-0.113 -0.414,1.679 -1.726,2.684 -0.817,2.918 -0.765,-0.004 0.539,-2.59 2.074,-3.047 0.41,-2.035 -0.449,-0.09 -0.395,1.946 L 95,51.49 94.426,54.272 93.48,54.334 c 0,-0.019 0,-0.039 -0.003,-0.058 -0.008,-0.129 -0.016,-0.254 -0.028,-0.371 l 0.871,-3.672 1.207,-2.235 0.356,-1.566 -0.449,-0.102 -0.34,1.504 -1.203,2.235 -0.684,2.863 c -0.105,-0.219 -0.234,-0.324 -0.367,-0.254 -0.301,0.16 -0.5,1.152 -0.449,2.18 0.05,1.023 0.332,1.757 0.636,1.593 0.25,-0.132 0.426,-0.839 0.453,-1.664 l 0.575,0.145 -0.555,9.273 -1.609,3.993 -0.641,7.183 z"
   style="fill:#ff6b40;fill-opacity:1;fill-rule:evenodd;stroke:none"
   id="path168"
   inkscape:connector-curvature="0" /><g
   id="g170"><g
     id="g172"
     clip-path="url(#clipPath176)"><g
       id="g178"><path
         d="m 89.094,163.865 -2.422,0.04 -3.984,1.699 6.089,-4.43 z"
         style="fill:url(#linearGradient184);fill-rule:evenodd;stroke:none"
         id="path186"
         inkscape:connector-curvature="0" /></g></g></g><g
   id="g188"><g
     id="g190"
     clip-path="url(#clipPath194)"><g
       id="g196"><path
         d="m 83.984,107.264 -2.129,-8.5 -4.3,-10.594 -1.524,-8.027 -0.433,-7.098 -2.977,-7.336 0.457,4.949 1.899,9.657 0.238,3.636 3.129,14.43 4.98,8.953 z"
         style="fill:url(#linearGradient202);fill-rule:evenodd;stroke:none"
         id="path204"
         inkscape:connector-curvature="0" /></g></g></g><path
   d="m 40.043,64.283 c -0.195,-0.554 0.102,-1.168 0.668,-1.367 0.566,-0.199 1.187,0.086 1.383,0.641 0.195,0.558 -0.102,1.172 -0.668,1.371 -0.567,0.199 -1.188,-0.086 -1.383,-0.645 z"
   style="fill:#3d6999;fill-opacity:1;fill-rule:evenodd;stroke:none"
   id="path206"
   inkscape:connector-curvature="0" /><path
   d="m 93.215,54.463 c -0.024,-0.504 -0.168,-0.844 -0.324,-0.758 -0.157,0.082 -0.262,0.559 -0.239,1.059 0.028,0.504 0.172,0.844 0.328,0.758 0.153,-0.082 0.262,-0.555 0.235,-1.059 z"
   style="fill:#3d6999;fill-opacity:1;fill-rule:evenodd;stroke:none"
   id="path208"
   inkscape:connector-curvature="0" /><g
   id="g210"><g
     id="g212"
     clip-path="url(#clipPath216)"><g
       id="g218"><path
         d="m 110.047,151.783 -5.512,-0.671 -4.383,0.113 -0.097,-0.703 -1.801,-7.399 -1.293,-3.785 -0.008,3.113 0.723,1.813 1.762,7.57 1.14,0.809 z"
         style="fill:url(#linearGradient224);fill-rule:evenodd;stroke:none"
         id="path226"
         inkscape:connector-curvature="0" /></g></g></g><path
   d="m 127.148,177.393 7.461,3.062 1.469,0.239 1.219,-0.145 6.504,3.738 -1.813,2.883 0.856,0.504 1.465,-1.262 1.406,0.45 2.953,-4.43 -2.609,-1.684 -1.243,2.117 -6.48,-4.082 -0.215,-1.164 -0.93,-1.222 -7.257,-4.492 z"
   style="fill:#3d6999;fill-opacity:1;fill-rule:evenodd;stroke:none"
   id="path228"
   inkscape:connector-curvature="0" /><path
   d="m 137.039,180.479 6.738,3.937 1.098,-1.535 -6.785,-4.336 c -0.516,0.305 -1.051,1.074 -1.051,1.934 z"
   style="fill:#ff6b40;fill-opacity:1;fill-rule:evenodd;stroke:none"
   id="path230"
   inkscape:connector-curvature="0" /><text
   xml:space="preserve"
   style="font-style:normal;font-variant:normal;font-weight:normal;font-stretch:normal;font-size:21.47553635px;line-height:1.25;font-family:Haettenschweiler;-inkscape-font-specification:Haettenschweiler;letter-spacing:0px;word-spacing:0px;fill:#000000;fill-opacity:1;stroke:none;stroke-width:0.53688842"
   x="18.144787"
   y="-197.70903"
   id="text1095"
   transform="scale(1,-1)"><tspan
     sodipodi:role="line"
     id="tspan1093"
     x="18.144787"
     y="-197.70903"
     style="word-spacing:0px;stroke-width:0.53688842"><tspan
       style="fill:#3d6999;fill-opacity:1;stroke-width:0.53688842"
       id="tspan1099">Réseau </tspan><tspan
       style="fill:#ff6b40;fill-opacity:1;stroke-width:0.53688842"
       id="tspan1097">HUMAN</tspan><tspan
       style="fill:#3d6999;fill-opacity:1;stroke-width:0.53688842"
       id="tspan1101">LABS</tspan></tspan></text>


<g
   aria-label="Développé et animé par My Human Kit"
   transform="scale(1,-1)"
   style="font-style:normal;font-variant:normal;font-weight:normal;font-stretch:normal;font-size:11.32832813px;line-height:1.25;font-family:Haettenschweiler;-inkscape-font-specification:Haettenschweiler;letter-spacing:0px;word-spacing:0px;fill:#000000;fill-opacity:1;stroke:none;stroke-width:0.28320822"
   id="text1105"><path
     d="m 18.578037,-33.629787 v -7.932043 h 2.168312 q 0.708021,0 1.261162,0.387199 0.553141,0.381667 0.553141,1.17819 v 4.801264 q 0,0.741209 -0.519953,1.156065 -0.514421,0.409325 -1.283287,0.409325 z m 2.229158,-1.438167 v -5.055709 q 0,-0.414856 -0.486764,-0.414856 v 5.890952 q 0.486764,0 0.486764,-0.420387 z"
     style="fill:#3d6999;fill-opacity:1;stroke-width:0.28320822"
     id="path947"
     inkscape:connector-curvature="0" /><path
     d="m 26.598582,-36.351241 h -2.118531 v 1.499012 q 0,0.326353 0.276571,0.326353 0.271039,0 0.271039,-0.326353 v -1.29435 h 1.570921 v 1.305413 q 0,1.299881 -1.853023,1.299881 -1.836428,0 -1.836428,-1.355195 v -3.84433 q 0,-1.355196 1.836428,-1.355196 1.853023,0 1.853023,1.299881 z m -1.570921,-0.962466 v -1.471355 q 0,-0.31529 -0.271039,-0.31529 -0.276571,0 -0.276571,0.31529 v 1.471355 z m 0.78546,-4.248123 -0.658238,1.023311 h -0.868431 l 0.337416,-1.023311 z"
     style="fill:#3d6999;fill-opacity:1;stroke-width:0.28320822"
     id="path949"
     inkscape:connector-curvature="0" /><path
     d="m 31.029242,-40.051755 -1.156065,6.421968 h -1.902805 l -1.156065,-6.421968 h 1.587515 l 0.542078,3.794548 0.531015,-3.794548 z"
     style="fill:#3d6999;fill-opacity:1;stroke-width:0.28320822"
     id="path951"
     inkscape:connector-curvature="0" /><path
     d="m 34.934416,-36.351241 h -2.11853 v 1.499012 q 0,0.326353 0.276571,0.326353 0.271039,0 0.271039,-0.326353 v -1.29435 h 1.57092 v 1.305413 q 0,1.299881 -1.853022,1.299881 -1.836428,0 -1.836428,-1.355195 v -3.84433 q 0,-1.355196 1.836428,-1.355196 1.853022,0 1.853022,1.299881 z m -1.57092,-0.962466 v -1.471355 q 0,-0.31529 -0.271039,-0.31529 -0.276571,0 -0.276571,0.31529 v 1.471355 z"
     style="fill:#3d6999;fill-opacity:1;stroke-width:0.28320822"
     id="path953"
     inkscape:connector-curvature="0" /><path
     d="M 36.875941,-33.629787 H 35.29949 v -7.932043 h 1.576451 z"
     style="fill:#3d6999;fill-opacity:1;stroke-width:0.28320822"
     id="path955"
     inkscape:connector-curvature="0" /><path
     d="m 37.202294,-34.89648 v -3.84433 q 0,-1.355196 1.875148,-1.355196 0.724615,0 1.272224,0.31529 0.553142,0.315291 0.553142,0.984591 v 3.954959 q 0,1.299881 -1.825366,1.299881 -1.875148,0 -1.875148,-1.355195 z m 2.124062,0.04425 v -3.932833 q 0,-0.31529 -0.27104,-0.31529 -0.27657,0 -0.27657,0.31529 v 3.932833 q 0,0.326353 0.27657,0.326353 0.27104,0 0.27104,-0.326353 z"
     style="fill:#3d6999;fill-opacity:1;stroke-width:0.28320822"
     id="path957"
     inkscape:connector-curvature="0" /><path
     d="m 42.789019,-33.779136 v 1.510075 h -1.57092 v -7.782694 h 1.189253 l 0.132754,0.259977 q 0.387199,-0.304228 0.918214,-0.304228 0.536547,0 0.990122,0.271039 0.459107,0.271039 0.459107,0.779929 v 4.613196 q 0,0.403793 -0.331884,0.647175 -0.331885,0.243382 -0.807586,0.243382 -0.658238,0 -0.97906,-0.237851 z m 0.54761,-1.050967 v -3.977084 q 0,-0.293165 -0.271039,-0.293165 -0.276571,0 -0.276571,0.293165 v 3.988146 q 0,0.282102 0.276571,0.282102 0.271039,0 0.271039,-0.293164 z"
     style="fill:#3d6999;fill-opacity:1;stroke-width:0.28320822"
     id="path959"
     inkscape:connector-curvature="0" /><path
     d="m 46.821418,-33.779136 v 1.510075 h -1.570921 v -7.782694 h 1.189253 l 0.132754,0.259977 q 0.387199,-0.304228 0.918214,-0.304228 0.536547,0 0.990123,0.271039 0.459107,0.271039 0.459107,0.779929 v 4.613196 q 0,0.403793 -0.331885,0.647175 -0.331885,0.243382 -0.807586,0.243382 -0.658238,0 -0.979059,-0.237851 z m 0.547609,-1.050967 v -3.977084 q 0,-0.293165 -0.271039,-0.293165 -0.27657,0 -0.27657,0.293165 v 3.988146 q 0,0.282102 0.27657,0.282102 0.271039,0 0.271039,-0.293164 z"
     style="fill:#3d6999;fill-opacity:1;stroke-width:0.28320822"
     id="path961"
     inkscape:connector-curvature="0" /><path
     d="m 52.977877,-36.351241 h -2.11853 v 1.499012 q 0,0.326353 0.276571,0.326353 0.271039,0 0.271039,-0.326353 v -1.29435 h 1.57092 v 1.305413 q 0,1.299881 -1.853022,1.299881 -1.836428,0 -1.836428,-1.355195 v -3.84433 q 0,-1.355196 1.836428,-1.355196 1.853022,0 1.853022,1.299881 z m -1.57092,-0.962466 v -1.471355 q 0,-0.31529 -0.271039,-0.31529 -0.276571,0 -0.276571,0.31529 v 1.471355 z m 0.78546,-4.248123 -0.658238,1.023311 h -0.868431 l 0.337416,-1.023311 z"
     style="fill:#3d6999;fill-opacity:1;stroke-width:0.28320822"
     id="path963"
     inkscape:connector-curvature="0" /><path
     d="m 59.040303,-36.351241 h -2.11853 v 1.499012 q 0,0.326353 0.27657,0.326353 0.271039,0 0.271039,-0.326353 v -1.29435 h 1.570921 v 1.305413 q 0,1.299881 -1.853022,1.299881 -1.836429,0 -1.836429,-1.355195 v -3.84433 q 0,-1.355196 1.836429,-1.355196 1.853022,0 1.853022,1.299881 z m -1.570921,-0.962466 v -1.471355 q 0,-0.31529 -0.271039,-0.31529 -0.27657,0 -0.27657,0.31529 v 1.471355 z"
     style="fill:#3d6999;fill-opacity:1;stroke-width:0.28320822"
     id="path965"
     inkscape:connector-curvature="0" /><path
     d="m 62.514029,-33.629787 h -0.995654 q -1.067562,0 -1.277756,-0.320822 -0.210194,-0.320822 -0.210194,-1.233505 v -3.916238 h -0.702489 v -0.951403 h 0.702489 v -1.29435 h 1.576452 v 1.29435 h 0.851837 v 0.951403 h -0.851837 v 3.905175 q 0,0.282102 0.165943,0.381668 0.171473,0.09403 0.741209,0.09403 z"
     style="fill:#3d6999;fill-opacity:1;stroke-width:0.28320822"
     id="path967"
     inkscape:connector-curvature="0" /><path
     d="M 68.548795,-33.629787 H 67.15488 v -0.248914 q -0.177006,0.337416 -1.012248,0.337416 -1.288819,0 -1.288819,-1.006717 v -1.288818 q 0,-0.43145 0.309759,-0.752272 0.31529,-0.320822 1.261161,-0.802054 0.54761,-0.276571 0.54761,-0.442513 v -0.951403 q 0,-0.31529 -0.271039,-0.31529 -0.309759,0 -0.309759,0.768866 0,0.138285 0.01659,0.409324 0.02213,0.271039 0.02213,0.409325 h -1.521138 v -1.283288 q 0,-1.299881 1.88068,-1.299881 1.758988,0 1.758988,1.355196 z m -1.576452,-1.200316 v -1.653892 q -0.542078,0.132754 -0.542078,0.486764 v 1.167128 q 0,0.293164 0.282102,0.293164 0.259976,0 0.259976,-0.293164 z"
     style="fill:#3d6999;fill-opacity:1;stroke-width:0.28320822"
     id="path969"
     inkscape:connector-curvature="0" /><path
     d="m 72.608853,-33.629787 h -1.576452 v -5.155275 q 0,-0.293165 -0.271039,-0.293165 -0.271039,0 -0.271039,0.282102 v 5.166338 h -1.576452 v -6.421968 h 1.576452 v 0.215725 q 0.31529,-0.259976 0.973528,-0.259976 0.425919,0 0.78546,0.232319 0.359542,0.232319 0.359542,0.680364 z"
     style="fill:#3d6999;fill-opacity:1;stroke-width:0.28320822"
     id="path971"
     inkscape:connector-curvature="0" /><path
     d="m 74.500596,-40.405765 h -1.576452 v -1.156065 h 1.576452 z m 0,6.775978 h -1.576452 v -6.421968 h 1.576452 z"
     style="fill:#3d6999;fill-opacity:1;stroke-width:0.28320822"
     id="path973"
     inkscape:connector-curvature="0" /><path
     d="m 80.651524,-33.629787 h -1.57092 v -5.133149 q 0,-0.293165 -0.271039,-0.293165 -0.276571,0 -0.276571,0.282102 v 5.144212 h -1.57092 v -5.144212 q 0,-0.293165 -0.271039,-0.293165 -0.276571,0 -0.276571,0.282102 v 5.155275 h -1.57092 v -6.421968 h 1.57092 v 0.226788 q 0.326353,-0.271039 0.97906,-0.271039 0.547609,0 0.995654,0.436981 0.414855,-0.436981 1.133939,-0.436981 0.409324,0 0.768866,0.248913 0.359541,0.243383 0.359541,0.680364 z"
     style="fill:#3d6999;fill-opacity:1;stroke-width:0.28320822"
     id="path975"
     inkscape:connector-curvature="0" /><path
     d="m 84.706048,-36.351241 h -2.11853 v 1.499012 q 0,0.326353 0.27657,0.326353 0.271039,0 0.271039,-0.326353 v -1.29435 h 1.570921 v 1.305413 q 0,1.299881 -1.853023,1.299881 -1.836428,0 -1.836428,-1.355195 v -3.84433 q 0,-1.355196 1.836428,-1.355196 1.853023,0 1.853023,1.299881 z m -1.570921,-0.962466 v -1.471355 q 0,-0.31529 -0.271039,-0.31529 -0.27657,0 -0.27657,0.31529 v 1.471355 z m 0.78546,-4.248123 -0.658237,1.023311 h -0.868432 l 0.337416,-1.023311 z"
     style="fill:#3d6999;fill-opacity:1;stroke-width:0.28320822"
     id="path977"
     inkscape:connector-curvature="0" /><path
     d="m 88.64441,-33.779136 v 1.510075 h -1.570921 v -7.782694 h 1.189254 l 0.132753,0.259977 q 0.387199,-0.304228 0.918215,-0.304228 0.536546,0 0.990122,0.271039 0.459107,0.271039 0.459107,0.779929 v 4.613196 q 0,0.403793 -0.331885,0.647175 -0.331884,0.243382 -0.807585,0.243382 -0.658238,0 -0.97906,-0.237851 z m 0.54761,-1.050967 v -3.977084 q 0,-0.293165 -0.27104,-0.293165 -0.27657,0 -0.27657,0.293165 v 3.988146 q 0,0.282102 0.27657,0.282102 0.27104,0 0.27104,-0.293164 z"
     style="fill:#3d6999;fill-opacity:1;stroke-width:0.28320822"
     id="path979"
     inkscape:connector-curvature="0" /><path
     d="m 94.828531,-33.629787 h -1.393916 v -0.248914 q -0.177005,0.337416 -1.012248,0.337416 -1.288819,0 -1.288819,-1.006717 v -1.288818 q 0,-0.43145 0.309759,-0.752272 0.315291,-0.320822 1.261162,-0.802054 0.54761,-0.276571 0.54761,-0.442513 v -0.951403 q 0,-0.31529 -0.271039,-0.31529 -0.309759,0 -0.309759,0.768866 0,0.138285 0.01659,0.409324 0.02212,0.271039 0.02212,0.409325 h -1.521137 v -1.283288 q 0,-1.299881 1.880679,-1.299881 1.758989,0 1.758989,1.355196 z m -1.576452,-1.200316 v -1.653892 Q 92.71,-36.351241 92.71,-35.997231 v 1.167128 q 0,0.293164 0.282102,0.293164 0.259977,0 0.259977,-0.293164 z"
     style="fill:#3d6999;fill-opacity:1;stroke-width:0.28320822"
     id="path981"
     inkscape:connector-curvature="0" /><path
     d="M 98.932832,-37.391146 H 97.35638 v -1.393916 q 0,-0.293165 -0.271039,-0.293165 -0.271039,0 -0.271039,0.282102 v 5.166338 H 95.23785 v -6.421968 h 1.576452 v 0.215725 q 0.315291,-0.259976 0.973528,-0.259976 0.47017,0 0.807586,0.254445 0.337416,0.248913 0.337416,0.658238 z"
     style="fill:#3d6999;fill-opacity:1;stroke-width:0.28320822"
     id="path983"
     inkscape:connector-curvature="0" /><path
     d="m 107.33504,-33.629787 h -1.55432 v -4.452786 l -0.90715,4.452786 h -1.20032 l -1.03991,-4.452786 v 4.452786 h -1.36072 v -7.932043 h 2.24022 l 0.79652,4.11537 0.69143,-4.11537 h 2.33425 z"
     style="fill:#ff6b40;fill-opacity:1"
     id="path985"
     inkscape:connector-curvature="0" /><path
     d="m 111.85974,-40.051755 -1.22244,6.388779 q -0.18807,0.97906 -0.50889,1.183722 -0.31529,0.210193 -0.87949,0.210193 h -1.10075 v -0.8629 q 0.61951,0 0.76886,-0.06085 0.14935,-0.06085 0.14935,-0.359542 0,-0.298696 -0.68036,-3.114184 l -0.81865,-3.385223 h 1.57645 l 0.65824,3.396286 0.51995,-3.396286 z"
     style="fill:#ff6b40;fill-opacity:1"
     id="path987"
     inkscape:connector-curvature="0" /><path
     d="m 118.06045,-33.629787 h -1.74239 v -3.805611 h -0.48677 v 3.805611 h -1.74239 v -7.932043 h 1.74239 v 3.163967 h 0.48677 v -3.163967 h 1.74239 z"
     style="fill:#ff6b40;fill-opacity:1"
     id="path989"
     inkscape:connector-curvature="0" /><path
     d="m 122.08732,-33.629787 h -1.57092 v -0.215725 q -0.30423,0.304227 -0.97353,0.304227 -0.46464,0 -0.80759,-0.243382 -0.33741,-0.248913 -0.33741,-0.647175 v -5.619913 h 1.57092 v 5.221652 q 0,0.293164 0.27657,0.293164 0.27104,0 0.27104,-0.282102 v -5.232714 h 1.57092 z"
     style="fill:#ff6b40;fill-opacity:1"
     id="path991"
     inkscape:connector-curvature="0" /><path
     d="m 128.25484,-33.629787 h -1.57092 v -5.133149 q 0,-0.293165 -0.27104,-0.293165 -0.27657,0 -0.27657,0.282102 v 5.144212 h -1.57092 v -5.144212 q 0,-0.293165 -0.27104,-0.293165 -0.27657,0 -0.27657,0.282102 v 5.155275 h -1.57092 v -6.421968 h 1.57092 v 0.226788 q 0.32635,-0.271039 0.97906,-0.271039 0.54761,0 0.99565,0.436981 0.41486,-0.436981 1.13394,-0.436981 0.40932,0 0.76887,0.248913 0.35954,0.243383 0.35954,0.680364 z"
     style="fill:#ff6b40;fill-opacity:1"
     id="path993"
     inkscape:connector-curvature="0" /><path
     d="m 132.33702,-33.629787 h -1.39391 v -0.248914 q -0.17701,0.337416 -1.01225,0.337416 -1.28882,0 -1.28882,-1.006717 v -1.288818 q 0,-0.43145 0.30976,-0.752272 0.31529,-0.320822 1.26116,-0.802054 0.54761,-0.276571 0.54761,-0.442513 v -0.951403 q 0,-0.31529 -0.27104,-0.31529 -0.30976,0 -0.30976,0.768866 0,0.138285 0.0166,0.409324 0.0221,0.271039 0.0221,0.409325 h -1.52114 v -1.283288 q 0,-1.299881 1.88068,-1.299881 1.75899,0 1.75899,1.355196 z m -1.57645,-1.200316 v -1.653892 q -0.54208,0.132754 -0.54208,0.486764 v 1.167128 q 0,0.293164 0.2821,0.293164 0.25998,0 0.25998,-0.293164 z"
     style="fill:#ff6b40;fill-opacity:1"
     id="path995"
     inkscape:connector-curvature="0" /><path
     d="m 136.39708,-33.629787 h -1.57645 v -5.155275 q 0,-0.293165 -0.27104,-0.293165 -0.27104,0 -0.27104,0.282102 v 5.166338 h -1.57645 v -6.421968 h 1.57645 v 0.215725 q 0.31529,-0.259976 0.97353,-0.259976 0.42592,0 0.78546,0.232319 0.35954,0.232319 0.35954,0.680364 z"
     style="fill:#ff6b40;fill-opacity:1"
     id="path997"
     inkscape:connector-curvature="0" /><path
     d="m 143.12327,-33.629787 h -1.91386 l -0.66931,-2.942711 v 2.942711 h -1.74239 v -7.932043 h 1.74239 v 2.644014 l 0.76334,-2.644014 h 1.61517 l -1.07309,3.617543 z"
     style="fill:#ff6b40;fill-opacity:1"
     id="path999"
     inkscape:connector-curvature="0" /><path
     style="color:#000000;font-style:normal;font-variant:normal;font-weight:normal;font-stretch:normal;font-size:23px;line-height:125%;font-family:Haettenschweiler;-inkscape-font-specification:Haettenschweiler;text-indent:0;text-align:start;text-decoration:none;text-decoration-line:none;letter-spacing:0px;word-spacing:0;text-transform:none;writing-mode:lr-tb;direction:ltr;text-anchor:start;visibility:visible;opacity:1;fill:#ff6b40;fill-opacity:1;fill-rule:nonzero;stroke:none;stroke-width:0.16830534;marker:none"
     d="m 144.90439,-33.629787 h -1.57559 v -6.421968 h 1.57559 z"
     id="path4296"
     inkscape:connector-curvature="0" /><path
     style="color:#000000;font-style:normal;font-variant:normal;font-weight:normal;font-stretch:normal;font-size:23px;line-height:125%;font-family:Haettenschweiler;-inkscape-font-specification:Haettenschweiler;text-indent:0;text-align:start;text-decoration:none;text-decoration-line:none;letter-spacing:0px;word-spacing:0;text-transform:none;writing-mode:lr-tb;direction:ltr;text-anchor:start;visibility:visible;opacity:1;fill:#3b6e9d;fill-opacity:1;fill-rule:nonzero;stroke:none;stroke-width:0.16830707;marker:none"
     d="m 144.90439,-40.405765 h -1.5756 v -1.156065 h 1.5756 z"
     id="path7324"
     inkscape:connector-curvature="0" /><path
     d="m 148.35599,-33.629787 h -0.99566 q -1.06756,0 -1.27775,-0.320822 -0.2102,-0.320822 -0.2102,-1.233505 v -3.916238 h -0.70249 v -0.951403 h 0.70249 v -1.29435 h 1.57645 v 1.29435 h 0.85184 v 0.951403 h -0.85184 v 3.905175 q 0,0.282102 0.16595,0.381668 0.17147,0.09403 0.74121,0.09403 z"
     style="fill:#ff6b40;fill-opacity:1"
     id="path1003"
     inkscape:connector-curvature="0" /></g>

<g
   aria-label="i"
   transform="matrix(1,0,0,-1,0,-0.00714864)"
   style="font-style:normal;font-variant:normal;font-weight:normal;font-stretch:normal;font-size:11.32832813px;line-height:1.25;font-family:Haettenschweiler;-inkscape-font-specification:Haettenschweiler;letter-spacing:0px;word-spacing:0px;fill:#ff6b40;fill-opacity:1;stroke:none;stroke-width:0.28320822"
   id="text1105-3" /><rect
   style="opacity:0;fill:#3d6999;fill-opacity:1;stroke:#000000;stroke-width:0.75;stroke-opacity:1"
   id="rect1125"
   width="1.9141401"
   height="1.0427778"
   x="143.30339"
   y="-41.582535"
   transform="scale(1,-1)" /><rect
   style="opacity:0;fill:#3d6999;fill-opacity:1;stroke:#000000;stroke-width:0.75;stroke-opacity:1"
   id="rect1127"
   width="0.27140793"
   height="1.9141401"
   x="145.26038"
   y="-42.168221"
   transform="scale(1,-1)" /><rect
   style="opacity:0;fill:#3d6999;fill-opacity:1;stroke:#000000;stroke-width:0.75;stroke-opacity:1"
   id="rect1133"
   width="1.5141705"
   height="1.1570549"
   x="142.64629"
   y="-43.096703"
   transform="scale(1,-1)" /><rect
   style="opacity:0;fill:#3d6999;fill-opacity:1;stroke:#000000;stroke-width:0.75;stroke-opacity:1"
   id="rect1135"
   width="0.59995168"
   height="1.757017"
   x="143.77478"
   y="-42.596756"
   transform="scale(1,-1)" /><rect
   style="opacity:0;fill:#3d6999;fill-opacity:1;stroke:#000000;stroke-width:0.75;stroke-opacity:1"
   id="rect1137"
   width="0.028569257"
   height="1.228478"
   x="143.61765"
   y="-42.968163"
   transform="scale(1,-1)" /><rect
   style="opacity:0;fill:#3d6999;fill-opacity:1;stroke:#000000;stroke-width:0.75;stroke-opacity:1"
   id="rect1139"
   width="0.39996958"
   height="1.1427702"
   x="143.5605"
   y="-42.539604"
   transform="scale(1,-1)" /><path
   sodipodi:type="star"
   style="opacity:0;fill:#ff6b40;fill-opacity:1;stroke:#000000;stroke-width:0.75;stroke-opacity:1"
   id="path1158"
   sodipodi:sides="5"
   sodipodi:cx="141.08414"
   sodipodi:cy="-50.645573"
   sodipodi:r1="7.6150746"
   sodipodi:r2="3.8075373"
   sodipodi:arg1="0.87090346"
   sodipodi:arg2="1.499222"
   inkscape:flatsided="false"
   inkscape:rounded="0"
   inkscape:randomized="0"
   d="m 145.98928,-44.820717 -4.63285,-2.027067 -4.29629,2.667258 0.49623,-5.032503 -3.86434,-3.261781 4.93954,-1.083191 1.90799,-4.683149 2.55657,4.363054 5.04355,0.367436 -3.35949,3.779706 z"
   transform="scale(1,-1)"
   inkscape:transform-center-x="0.22437845"
   inkscape:transform-center-y="-0.7536884" /></g></g></svg>