<?xml version="1.0" standalone="no"?>
<!DOCTYPE svg PUBLIC "-//W3C//DTD SVG 20010904//EN"
 "http://www.w3.org/TR/2001/REC-SVG-20010904/DTD/svg10.dtd">
<svg version="1.0" xmlns="http://www.w3.org/2000/svg"
 width="1920.000000pt" height="1920.000000pt" viewBox="0 0 1920.000000 1920.000000"
 preserveAspectRatio="xMidYMid meet">
<metadata>
Created by potrace 1.16, written by Peter Selinger 2001-2019
</metadata>
<g transform="translate(0.000000,1920.000000) scale(0.100000,-0.100000)"
fill="#000000" stroke="none">
<path d="M9797 18503 c-4 -3 -7 -908 -7 -2010 l0 -2003 1015 0 1015 0 0 405 0
405 -475 0 -475 0 0 1605 0 1605 -533 0 c-294 0 -537 -3 -540 -7z"/>
<path d="M13141 18478 c-6 -18 -247 -915 -536 -1993 -289 -1078 -528 -1968
-531 -1977 -5 -17 25 -18 534 -18 l539 0 47 218 c26 119 55 247 63 285 l15 67
437 0 436 0 60 -276 c33 -152 63 -280 66 -285 3 -5 222 -8 540 -7 l535 3 -482
1795 c-265 987 -508 1891 -540 2008 l-57 212 -558 0 -557 0 -11 -32z m849
-2720 c0 -5 -126 -8 -280 -8 -217 0 -280 3 -280 13 0 13 268 1253 277 1277 4
11 281 -1247 283 -1282z"/>
<path d="M15620 16500 l0 -2001 938 3 c1028 4 987 1 1192 66 105 33 265 112
266 132 0 8 -4 22 -10 30 -8 12 -7 13 3 4 16 -15 81 23 78 46 -1 9 6 15 18 15
11 0 21 7 23 16 2 10 12 19 22 22 14 3 18 12 15 27 -4 19 -2 20 12 8 14 -11
15 -11 11 2 -8 22 7 45 44 71 18 13 27 16 21 8 -7 -9 -10 -18 -7 -21 6 -7
-159 -175 -199 -202 -15 -10 -25 -21 -23 -24 8 -7 121 85 171 140 49 54 125
164 125 180 0 16 -35 3 -47 -17 -7 -11 -12 -14 -13 -7 0 7 -4 11 -8 8 -4 -2
-8 3 -8 13 0 13 9 17 44 17 l44 -1 28 66 c68 160 97 388 80 631 -14 197 -51
325 -131 461 -47 79 -150 192 -226 248 -61 45 -77 50 -42 13 l24 -26 -25 7
c-24 7 -24 7 -5 -9 11 -8 15 -16 9 -16 -18 0 -37 27 -24 35 8 5 8 11 1 19 -6
7 -8 16 -5 19 4 3 -5 12 -20 18 -14 7 -26 17 -26 23 0 6 -5 4 -10 -4 -7 -11
-5 -17 8 -22 11 -4 6 -6 -14 -5 -23 2 -30 7 -31 22 -1 11 1 14 4 8 9 -24 23
-13 19 13 -5 25 -5 26 14 9 19 -17 21 -17 40 0 14 13 17 22 10 30 -8 9 -6 14
4 18 10 4 13 1 9 -9 -22 -57 106 73 173 177 112 172 154 345 154 627 0 237
-42 439 -122 582 -74 134 -235 307 -261 281 -6 -6 -15 -11 -21 -11 -5 0 -1 6
9 14 18 13 15 16 -40 51 -80 52 -204 108 -221 101 -8 -3 -13 -2 -10 3 7 10
-107 44 -224 67 -75 15 -192 18 -962 21 l-878 4 0 -2001z m1452 1270 c171 -53
225 -186 215 -525 -3 -102 -11 -190 -20 -220 -17 -60 -50 -127 -71 -144 -9 -7
-14 -17 -11 -21 3 -5 1 -11 -5 -15 -6 -4 -7 -11 -4 -17 5 -7 2 -8 -5 -4 -7 5
-18 0 -26 -10 -8 -11 -15 -14 -15 -7 0 7 11 20 25 29 39 25 23 28 -20 3 -61
-36 -138 -49 -302 -49 l-153 0 0 500 0 500 164 0 c135 0 175 -3 228 -20z m28
-1580 c87 -14 166 -55 206 -107 19 -25 34 -37 37 -30 2 6 4 1 4 -13 1 -14 8
-59 18 -100 23 -103 17 -461 -9 -530 -9 -24 -14 -50 -11 -58 2 -7 1 -11 -4 -8
-5 3 -20 -12 -34 -33 -19 -28 -46 -49 -94 -73 l-67 -33 -233 -3 -233 -4 0 501
0 501 178 0 c97 0 206 -5 242 -10z"/>
<path d="M770 16465 l0 -2005 530 0 530 0 2 813 3 812 538 3 537 2 0 395 0
395 -540 0 -540 0 0 398 0 397 540 -3 540 -2 0 400 0 400 -1070 0 -1070 0 0
-2005z"/>
<path d="M3942 18018 c-67 -249 -234 -871 -372 -1383 -138 -511 -249 -938
-246 -948 2 -9 1 -15 -3 -12 -6 3 -331 -1182 -331 -1208 0 -4 238 -7 529 -7
l528 1 61 278 c34 152 60 286 58 297 -2 10 -1 15 1 9 2 -7 157 -9 443 -7 412
2 440 1 448 -15 5 -10 36 -141 68 -290 l59 -273 527 0 c416 0 528 3 528 13 0
6 -79 305 -175 662 -96 358 -212 788 -257 957 -45 169 -85 305 -90 302 -4 -3
-5 1 -3 8 3 8 -58 250 -135 538 -144 537 -315 1174 -352 1312 -12 43 -24 76
-27 74 -3 -2 -6 10 -7 27 -1 18 -6 51 -13 75 l-12 42 -553 0 -553 0 -121 -452z
m693 -977 c-4 -14 229 -1139 271 -1308 l6 -23 -297 0 c-278 0 -296 1 -291 18
3 9 35 150 70 312 36 162 99 452 141 644 66 300 86 374 103 376 2 0 1 -9 -3
-19z"/>
<path d="M6570 16464 l0 -2005 913 4 c977 5 987 5 1176 58 267 74 477 228 600
439 93 158 129 306 138 555 8 256 -22 426 -105 591 -25 50 -35 61 -54 60 -13
0 -23 4 -23 11 0 6 -3 15 -7 19 -5 4 -8 11 -8 16 0 5 11 -4 25 -19 39 -44 29
-13 -14 42 -21 28 -43 49 -50 48 -6 -2 -10 0 -10 5 3 18 -2 32 -12 32 -5 0 -7
-6 -3 -12 5 -9 2 -9 -9 1 -20 16 -23 25 -4 15 6 -4 -1 8 -18 26 -31 34 -162
130 -177 130 -18 0 -7 -17 18 -29 15 -6 24 -14 21 -17 -8 -8 -54 25 -62 44 -3
9 -3 13 1 9 8 -7 63 34 128 97 70 68 166 206 127 181 -5 -3 -12 -1 -15 4 -3 4
4 8 17 7 18 -1 27 12 54 75 71 164 77 205 77 499 0 257 -1 268 -27 365 -56
208 -172 386 -329 508 -66 51 -80 58 -93 47 -13 -11 -19 -11 -31 2 -13 13 -13
15 0 15 8 0 13 -4 10 -9 -3 -4 -1 -8 5 -8 5 0 13 5 16 10 8 14 -181 104 -201
96 -8 -3 -13 -2 -10 3 6 9 -67 32 -182 56 -137 28 -344 35 -1114 35 l-768 0 0
-2006z m1469 1273 c55 -21 61 -21 34 2 l-22 19 25 0 c13 0 27 -4 30 -9 3 -5
14 -4 26 2 15 8 19 8 14 0 -4 -6 -3 -11 3 -11 5 0 8 -10 6 -22 -5 -25 12 -51
28 -41 6 4 7 1 2 -7 -6 -10 -14 -7 -31 13 -13 15 -21 33 -18 41 3 9 -3 14 -19
14 -34 0 -29 -18 20 -61 84 -76 107 -181 101 -459 -5 -208 -14 -258 -64 -333
-14 -23 -41 -51 -60 -64 -69 -47 -108 -55 -301 -59 l-183 -4 11 -21 c9 -21 9
-21 -5 -3 -8 10 -20 15 -28 11 -7 -3 -5 0 5 8 16 13 17 50 17 512 l0 497 183
-4 c136 -4 193 -9 226 -21z m60 -1587 c30 -7 47 -7 56 0 9 7 16 5 26 -7 13
-16 12 -17 -3 -5 -9 7 -19 9 -22 4 -3 -5 5 -14 17 -19 40 -19 87 -65 109 -107
37 -71 49 -137 55 -291 9 -238 -18 -379 -88 -459 -74 -83 -185 -109 -454 -104
l-160 3 -3 504 -2 504 212 -6 c117 -3 233 -11 257 -17z"/>
<path d="M705 13218 c-3 -7 -4 -1266 -3 -2798 l3 -2785 660 0 660 0 0 1418 c0
953 3 1410 10 1395 6 -12 150 -353 320 -758 l311 -735 438 0 438 0 316 751
317 751 5 -1411 5 -1411 660 0 660 0 0 2795 0 2795 -636 3 c-502 2 -638 -1
-646 -10 -5 -7 -245 -562 -533 -1233 -288 -671 -537 -1250 -554 -1287 l-31
-67 -560 1297 -561 1297 -637 3 c-505 2 -639 0 -642 -10z"/>
<path d="M6263 11133 c3 -2327 -2 -2150 68 -2423 112 -435 371 -770 722 -935
254 -120 428 -144 1017 -145 394 0 576 10 718 41 615 133 1002 609 1087 1337
13 108 15 428 15 2175 l0 2047 -677 -2 -678 -3 -5 -2015 c-5 -1907 -6 -2020
-24 -2110 -55 -286 -162 -380 -431 -380 -300 0 -407 122 -444 504 -7 73 -11
759 -11 2058 l0 1948 -680 0 -680 0 3 -2097z"/>
<path d="M10650 10430 l0 -2800 1283 2 1282 3 0 560 0 560 -602 3 -603 2 0
2235 0 2235 -680 0 -680 0 0 -2800z"/>
<path d="M13052 12668 l3 -563 543 -3 542 -2 0 -2235 0 -2235 678 2 677 3 3
2233 2 2232 540 0 540 0 2 561 c2 308 1 563 -1 565 -2 2 -798 4 -1768 4
l-1763 0 2 -562z"/>
<path d="M17060 10430 l0 -2800 680 0 680 0 0 2800 0 2800 -680 0 -680 0 0
-2800z"/>
<path d="M730 3555 l0 -2795 720 0 720 0 0 1045 0 1045 440 0 c243 0 484 5
538 11 389 42 704 181 937 414 217 215 342 496 397 885 20 145 17 661 -5 815
-57 407 -193 701 -437 945 -245 247 -557 382 -960 419 -72 7 -530 11 -1232 11
l-1118 0 0 -2795z m1988 1770 c176 -42 259 -136 308 -350 21 -91 31 -554 15
-688 -27 -233 -91 -357 -214 -416 -97 -47 -139 -53 -404 -58 l-253 -5 0 766 0
766 243 0 c178 0 259 -4 305 -15z"/>
<path d="M5080 3555 l0 -2795 725 0 725 0 0 1125 0 1125 130 0 c96 0 132 -3
134 -12 2 -7 21 -89 41 -183 92 -424 373 -1484 526 -1983 l22 -72 739 0 c406
0 738 2 738 4 0 2 -61 176 -136 387 -296 839 -473 1391 -594 1860 l-37 145 62
32 c388 202 617 548 680 1029 18 137 21 623 4 771 -53 482 -266 861 -612 1093
-150 100 -288 161 -478 209 -212 54 -193 54 -1476 57 l-1193 4 0 -2796z m2058
1756 c149 -55 218 -152 254 -363 20 -111 16 -591 -4 -688 -45 -209 -118 -296
-291 -347 -38 -12 -118 -17 -309 -20 l-258 -5 0 727 0 727 273 -4 c253 -4 276
-6 335 -27z"/>
<path d="M9537 6343 c-4 -3 -7 -1261 -7 -2795 l0 -2788 725 0 725 0 0 2795 0
2795 -718 0 c-395 0 -722 -3 -725 -7z"/>
<path d="M13032 6340 c-309 -30 -545 -106 -754 -242 -169 -111 -286 -232 -391
-406 -167 -276 -247 -671 -234 -1162 8 -336 50 -562 143 -774 114 -260 263
-440 481 -583 116 -76 178 -102 497 -210 385 -130 554 -215 626 -315 49 -68
65 -135 64 -278 -2 -192 -36 -309 -115 -395 -124 -134 -288 -154 -919 -111
-341 23 -609 45 -737 61 l-43 5 0 -549 0 -548 48 -7 c75 -11 546 -44 802 -56
144 -8 408 -10 680 -7 481 5 545 11 750 71 358 104 642 333 800 645 109 216
168 497 177 846 11 416 -38 707 -159 950 -171 340 -393 521 -803 655 -330 107
-403 133 -500 180 -113 54 -227 138 -268 198 -70 100 -97 250 -79 443 36 392
160 509 535 509 140 0 689 -38 950 -65 77 -8 152 -15 168 -15 l29 0 0 540 0
540 -23 9 c-31 12 -181 27 -532 52 -323 23 -1034 34 -1193 19z"/>
<path d="M15587 6343 c-4 -3 -7 -1261 -7 -2795 l0 -2788 1445 0 1445 0 2 556
c2 306 1 558 -1 560 -2 2 -328 4 -723 4 l-718 0 0 565 0 565 720 0 720 0 2
561 c2 308 1 563 -1 565 -2 2 -328 4 -723 4 l-718 0 0 545 0 545 720 0 720 0
2 556 c2 306 1 558 -1 560 -7 7 -2877 4 -2884 -3z"/>
</g>
</svg>
