<?xml version="1.0" standalone="no"?>
<!DOCTYPE svg PUBLIC "-//W3C//DTD SVG 20010904//EN"
 "http://www.w3.org/TR/2001/REC-SVG-20010904/DTD/svg10.dtd">
<svg version="1.0" xmlns="http://www.w3.org/2000/svg"
 width="1920.000000pt" height="1920.000000pt" viewBox="0 0 1920.000000 1920.000000"
 preserveAspectRatio="xMidYMid meet">
<metadata>
Created by potrace 1.16, written by Peter Selinger 2001-2019
</metadata>
<g transform="translate(0.000000,1920.000000) scale(0.100000,-0.100000)"
fill="#000000" stroke="none">
<path d="M9800 16495 l0 -2005 1010 0 1010 0 0 400 0 400 -475 0 -475 0 0
1605 0 1605 -535 0 -535 0 0 -2005z"/>
<path d="M13136 18448 c-9 -29 -249 -924 -535 -1988 -286 -1064 -523 -1943
-527 -1953 -6 -16 23 -17 532 -15 l539 3 56 258 c32 142 60 269 63 282 l6 25
439 0 438 0 63 -285 63 -285 535 0 534 0 -6 28 c-4 15 -245 914 -537 1999
-291 1084 -529 1974 -529 1977 0 3 -252 6 -560 6 l-559 0 -15 -52z m717 -2036
c76 -356 138 -650 138 -654 -1 -5 -130 -8 -287 -8 -267 0 -285 1 -280 18 13
42 276 1258 276 1274 0 70 32 -61 153 -630z"/>
<path d="M705 10430 l0 -2790 658 0 657 0 0 1417 c0 779 3 1413 7 1409 4 -3
149 -345 324 -759 l317 -752 434 -3 435 -2 313 742 c172 409 315 751 318 761
2 9 8 17 13 17 5 0 8 -609 6 -1415 l-2 -1415 658 0 657 0 0 2790 0 2790 -638
0 -638 0 -553 -1287 c-304 -709 -556 -1291 -560 -1296 -4 -4 -259 576 -567
1288 l-559 1295 -640 0 -640 0 0 -2790z"/>
<path d="M6263 11143 c2 -1587 6 -2097 16 -2158 66 -430 197 -724 427 -957
207 -211 447 -328 765 -373 150 -21 1058 -21 1209 0 340 49 621 196 820 430
195 230 305 491 367 867 16 94 17 285 20 2186 l3 2082 -680 0 -680 0 -3 -2032
-3 -2033 -21 -92 c-40 -174 -91 -251 -201 -305 l-67 -33 -160 0 -160 0 -67 33
c-111 54 -158 128 -200 310 l-22 97 -3 2028 -3 2027 -680 0 -681 0 4 -2077z"/>
<path d="M10650 10430 l0 -2790 1280 0 1280 0 0 555 0 555 -600 0 -600 0 0
2235 0 2235 -680 0 -680 0 0 -2790z"/>
<path d="M13050 12665 l0 -555 545 0 545 0 0 -2235 0 -2235 680 0 680 0 0
2235 0 2235 540 0 540 0 0 555 0 555 -1765 0 -1765 0 0 -555z"/>
<path d="M17060 10430 l0 -2790 680 0 680 0 0 2790 0 2790 -680 0 -680 0 0
-2790z"/>
<path d="M730 3550 l0 -2790 720 0 720 0 0 1045 0 1045 413 0 c226 0 462 5
522 10 514 47 909 260 1141 616 124 189 202 428 234 709 13 119 13 620 -1 743
-63 581 -345 1025 -791 1245 -117 58 -239 100 -393 134 l-120 27 -1222 3
-1223 4 0 -2791z m1926 1789 c210 -29 314 -124 364 -329 32 -134 46 -395 32
-608 -21 -328 -78 -459 -233 -537 -84 -43 -176 -55 -425 -55 l-224 0 0 770 0
770 204 0 c113 0 239 -5 282 -11z"/>
<path d="M5090 3550 l0 -2790 715 0 715 0 0 1125 0 1125 138 0 138 0 18 -92
c55 -273 307 -1249 453 -1753 53 -181 101 -347 106 -368 l11 -37 737 0 738 0
-23 67 c-13 38 -81 230 -151 428 -288 817 -492 1466 -589 1877 -6 26 -2 30 52
57 102 51 238 149 316 226 208 206 329 477 371 835 18 148 20 545 4 706 -69
713 -469 1189 -1124 1340 -187 42 -227 44 -1452 44 l-1173 0 0 -2790z m2003
1776 c167 -47 242 -127 288 -308 18 -70 22 -124 26 -336 6 -283 -4 -402 -44
-523 -46 -141 -128 -214 -282 -251 -63 -15 -118 -18 -318 -18 l-243 0 0 723
c0 398 3 727 8 731 4 5 120 6 257 3 189 -3 264 -8 308 -21z"/>
<path d="M9540 3550 l0 -2790 720 0 720 0 0 2790 0 2790 -720 0 -720 0 0
-2790z"/>
<path d="M12929 6325 c-511 -70 -884 -317 -1087 -720 -145 -290 -216 -757
-183 -1208 22 -300 66 -487 161 -684 78 -162 161 -282 268 -385 172 -165 280
-224 649 -349 305 -103 388 -136 492 -193 193 -106 251 -217 238 -455 -12
-234 -86 -379 -223 -437 -85 -36 -142 -46 -304 -51 -173 -5 -611 19 -1024 58
-115 10 -222 19 -238 19 l-28 0 0 -539 c0 -505 1 -540 18 -545 32 -10 216 -26
532 -47 396 -26 1157 -37 1347 -20 254 24 426 68 608 156 381 184 613 499 704
960 79 399 61 909 -45 1224 -78 233 -223 449 -386 574 -174 133 -256 171 -658
302 -129 42 -281 99 -336 126 -176 86 -279 192 -322 329 -13 43 -17 91 -16
220 1 366 89 523 327 587 113 31 543 13 1137 -47 107 -11 198 -20 202 -20 4 0
8 245 8 544 l0 543 -37 7 c-48 8 -482 42 -710 56 -247 14 -974 11 -1094 -5z"/>
<path d="M15590 3550 l0 -2790 1440 0 1440 0 0 555 0 555 -722 2 -723 3 0 570
0 570 723 3 722 2 0 555 0 555 -722 2 -723 3 0 545 0 545 723 3 722 2 0 555 0
555 -1440 0 -1440 0 0 -2790z"/>
</g>
</svg>
