<?xml version="1.0" standalone="no"?>
<!DOCTYPE svg PUBLIC "-//W3C//DTD SVG 20010904//EN"
 "http://www.w3.org/TR/2001/REC-SVG-20010904/DTD/svg10.dtd">
<svg version="1.0" xmlns="http://www.w3.org/2000/svg"
 width="1920.000000pt" height="1920.000000pt" viewBox="0 0 1920.000000 1920.000000"
 preserveAspectRatio="xMidYMid meet">
<metadata>
Created by potrace 1.16, written by Peter Selinger 2001-2019
</metadata>
<g transform="translate(0.000000,1920.000000) scale(0.100000,-0.100000)"
fill="#000000" stroke="none">
<path d="M730 9635 l0 -8875 1100 0 1100 0 0 6865 c0 3776 2 6865 4 6865 13 0
4469 -2737 4469 -2745 0 -5 -72 -59 -160 -120 -206 -142 -321 -228 -463 -346
-888 -737 -1416 -1679 -1559 -2781 -57 -433 -66 -816 -65 -2616 l1 -1543 29
-30 28 -29 615 0 616 0 -3 -1202 c-2 -751 1 -1250 7 -1328 31 -383 239 -701
567 -870 159 -82 320 -115 509 -107 270 12 498 117 691 320 102 107 172 217
221 347 71 191 66 83 70 1533 l4 1307 1099 0 1099 0 4 -1312 c4 -1446 -1
-1343 66 -1528 210 -574 871 -841 1416 -570 283 140 491 412 556 725 18 85 19
160 19 1403 l0 1312 646 0 645 0 -4 1853 c-4 1881 -5 1899 -43 2207 -98 784
-393 1517 -857 2129 -250 329 -482 565 -867 881 -102 84 -248 204 -325 267
-77 63 -138 118 -136 121 3 4 1004 619 2225 1368 l2221 1361 3 -6869 2 -6868
1098 2 1097 3 3 8868 c1 4877 0 8867 -3 8867 -3 0 -43 -21 -88 -47 -156 -89
-5617 -3435 -7937 -4863 -360 -222 -684 -417 -720 -434 -86 -40 -169 -42 -252
-4 -31 14 -395 235 -810 491 -1172 723 -2666 1639 -6008 3685 -993 608 -1833
1122 -1867 1143 l-63 39 0 -8875z m8991 699 c30 -15 79 -43 109 -64 88 -60
355 -225 630 -390 289 -174 403 -250 534 -359 377 -313 624 -702 742 -1167 76
-300 87 -474 78 -1197 l-7 -567 -2206 2 -2206 3 0 690 c0 614 2 703 18 805 95
612 360 1078 827 1454 116 94 339 239 690 452 162 98 346 211 408 251 119 77
161 101 202 114 43 14 124 2 181 -27z"/>
</g>
</svg>
