<?xml version="1.0" standalone="no"?>
<!DOCTYPE svg PUBLIC "-//W3C//DTD SVG 20010904//EN"
 "http://www.w3.org/TR/2001/REC-SVG-20010904/DTD/svg10.dtd">
<svg version="1.0" xmlns="http://www.w3.org/2000/svg"
 width="1920.000000pt" height="974.000000pt" viewBox="0 0 1920.000000 974.000000"
 preserveAspectRatio="xMidYMid meet">
<metadata>
Created by potrace 1.16, written by Peter Selinger 2001-2019
</metadata>
<g transform="translate(0.000000,974.000000) scale(0.100000,-0.100000)"
fill="#000000" stroke="none">
<path d="M390 4911 l0 -4441 550 0 550 0 0 3430 c0 2198 3 3430 10 3430 9 0
2207 -1344 2223 -1359 5 -5 -36 -39 -89 -77 -225 -156 -448 -364 -583 -542
-235 -311 -379 -679 -421 -1084 -20 -188 -29 -666 -24 -1347 3 -467 7 -668 15
-678 9 -10 74 -13 320 -13 l309 0 0 -642 c0 -714 0 -714 66 -838 141 -269 475
-356 731 -191 103 66 179 171 217 300 14 48 16 136 16 713 l0 658 549 0 550 0
3 -663 c4 -731 2 -700 70 -829 37 -70 145 -176 215 -212 258 -130 568 -23 698
241 53 109 55 134 55 831 0 507 3 642 13 642 6 1 149 2 317 3 l305 2 0 955 c0
1021 0 1029 -52 1275 -68 325 -213 633 -431 915 -95 123 -262 285 -459 445
l-172 140 31 19 c17 11 518 318 1112 682 l1081 663 3 -3435 2 -3434 550 0 550
0 0 4436 c0 4221 -1 4436 -17 4429 -10 -3 -130 -75 -268 -159 -1168 -715
-2851 -1747 -3407 -2089 -372 -228 -692 -420 -712 -425 -24 -7 -48 -7 -73 0
-20 5 -228 128 -462 272 -543 335 -1333 820 -2761 1694 -624 382 -1145 702
-1157 710 l-23 14 0 -4441z m4535 326 c28 -17 138 -84 245 -150 265 -161 320
-200 412 -285 199 -188 315 -427 348 -718 11 -98 14 -653 3 -680 -4 -12 -161
-14 -1103 -14 l-1098 0 -4 58 c-9 141 -8 527 2 625 21 205 86 393 190 548 60
89 208 233 315 305 50 34 167 107 260 164 94 56 181 111 195 120 14 10 48 30
75 44 59 32 87 29 160 -17z"/>
<path d="M14420 8345 l0 -1005 505 0 505 0 0 200 0 200 -240 0 -240 0 0 805 0
805 -265 0 -265 0 0 -1005z"/>
<path d="M16076 9298 c-8 -29 -126 -467 -261 -973 -135 -506 -250 -935 -255
-952 l-8 -33 266 0 267 0 30 143 31 142 221 3 221 2 11 -52 c6 -29 21 -95 32
-145 l21 -93 265 0 265 0 -5 23 c-3 12 -124 464 -269 1005 l-263 982 -277 0
-277 0 -15 -52z m368 -1007 c37 -173 65 -316 63 -318 -2 -2 -67 -2 -144 -1
l-139 3 70 322 c39 177 74 319 77 315 3 -4 36 -148 73 -321z"/>
<path d="M9870 5315 l0 -1395 330 0 330 0 2 704 3 704 157 -371 156 -372 219
-3 219 -2 148 352 c82 194 155 364 162 378 11 21 13 -90 14 -682 l0 -708 330
0 330 0 0 1395 0 1395 -321 -2 -320 -3 -112 -260 c-62 -143 -187 -432 -277
-642 -90 -211 -166 -383 -169 -383 -4 0 -132 290 -285 645 l-279 645 -318 0
-319 0 0 -1395z"/>
<path d="M12650 5702 c0 -1005 3 -1106 35 -1236 55 -216 179 -383 346 -465
148 -72 173 -76 524 -76 265 0 320 3 380 18 189 48 344 174 429 348 25 52 55
132 68 179 l22 85 3 1078 4 1077 -335 0 -335 0 -4 -1022 c-3 -921 -5 -1028
-20 -1078 -21 -71 -44 -100 -97 -127 -34 -18 -61 -23 -116 -23 -127 0 -189 54
-214 189 -6 34 -10 425 -10 1057 l0 1004 -340 0 -340 0 0 -1008z"/>
<path d="M14840 5315 l0 -1395 640 0 640 0 0 280 0 280 -300 0 -300 0 0 1115
0 1115 -340 0 -340 0 0 -1395z"/>
<path d="M16050 6430 l0 -280 270 0 270 0 0 -1115 0 -1115 340 0 340 0 0 1115
0 1115 270 0 270 0 0 280 0 280 -880 0 -880 0 0 -280z"/>
<path d="M18050 5315 l0 -1395 340 0 340 0 0 1395 0 1395 -340 0 -340 0 0
-1395z"/>
<path d="M9880 1876 l0 -1396 360 0 360 0 0 520 0 520 218 0 c250 0 369 14
491 59 169 62 291 170 366 326 70 147 80 203 80 470 0 206 -3 239 -23 320 -72
285 -250 469 -528 547 -77 22 -96 22 -701 26 l-623 3 0 -1395z m1047 866 c90
-47 116 -129 116 -357 0 -228 -26 -310 -116 -357 -36 -20 -61 -23 -184 -26
l-143 -4 0 387 0 387 143 -4 c123 -3 148 -6 184 -26z"/>
<path d="M12060 1876 l0 -1396 360 0 360 0 0 560 0 560 68 0 67 0 68 -278 c73
-293 147 -570 199 -739 l31 -103 367 0 367 0 -99 283 c-107 303 -209 624 -257
804 l-29 113 61 32 c132 70 239 212 289 383 21 74 23 98 23 320 -1 233 -2 243
-29 330 -82 267 -247 425 -520 497 -78 21 -105 22 -703 25 l-623 4 0 -1395z
m1017 879 c111 -33 147 -119 147 -350 0 -305 -53 -365 -321 -365 l-123 0 0
365 0 365 123 0 c81 0 141 -5 174 -15z"/>
<path d="M14290 1875 l0 -1395 360 0 360 0 0 1395 0 1395 -360 0 -360 0 0
-1395z"/>
<path d="M16020 3264 c-208 -27 -371 -101 -480 -221 -66 -72 -134 -213 -162
-333 -20 -83 -22 -122 -22 -310 1 -189 3 -225 23 -295 57 -211 172 -364 335
-447 21 -11 105 -42 185 -70 260 -88 328 -132 351 -227 16 -69 4 -169 -29
-234 -53 -105 -143 -121 -530 -93 -123 9 -250 19 -283 23 l-58 6 0 -271 0
-271 43 -6 c200 -27 775 -43 926 -26 202 24 333 82 451 200 89 89 137 179 172
316 20 79 23 115 23 295 0 240 -13 313 -77 443 -30 60 -60 101 -112 152 -87
87 -160 126 -356 190 -167 55 -208 74 -269 123 -64 52 -82 101 -82 220 1 213
62 291 236 300 70 3 354 -14 543 -34 l62 -7 0 271 0 270 -37 6 c-137 21 -750
43 -853 30z"/>
<path d="M17310 1875 l0 -1395 720 0 720 0 0 280 0 280 -360 0 -360 0 0 285 0
285 360 0 360 0 0 280 0 280 -360 0 -360 0 0 270 0 270 360 0 360 0 0 280 0
280 -720 0 -720 0 0 -1395z"/>
</g>
</svg>
